<svg id="visual" viewBox="0 0 900 600" width="900" height="600" xmlns="http://www.w3.org/2000/svg" xmlns:xlink="http://www.w3.org/1999/xlink" version="1.1"><rect x="0" y="0" width="900" height="600" fill="#FF82A9"></rect><g fill="none" stroke="#fff" stroke-width="2"><circle r="61" cx="816" cy="279"></circle><circle r="18" cx="120" cy="349"></circle><circle r="35" cx="35" cy="180"></circle><circle r="42" cx="853" cy="68"></circle><circle r="53" cx="145" cy="510"></circle><circle r="40" cx="335" cy="164"></circle><circle r="31" cx="862" cy="526"></circle><circle r="51" cx="674" cy="65"></circle><circle r="18" cx="712" cy="486"></circle><circle r="47" cx="404" cy="304"></circle><circle r="21" cx="476" cy="154"></circle><circle r="47" cx="412" cy="12"></circle><circle r="37" cx="539" cy="369"></circle><circle r="17" cx="409" cy="567"></circle><circle r="38" cx="592" cy="209"></circle><circle r="51" cx="544" cy="6"></circle><circle r="25" cx="293" cy="370"></circle><circle r="59" cx="166" cy="219"></circle><circle r="40" cx="532" cy="538"></circle><circle r="21" cx="157" cy="82"></circle><circle r="33" cx="681" cy="313"></circle><circle r="45" cx="277" cy="586"></circle><circle r="55" cx="13" cy="423"></circle><circle r="28" cx="15" cy="578"></circle><circle r="41" cx="882" cy="386"></circle><circle r="30" cx="17" cy="45"></circle><circle r="48" cx="726" cy="189"></circle><circle r="28" cx="410" cy="433"></circle><circle r="34" cx="270" cy="4"></circle></g></svg>